<?xml version="1.0" standalone="no"?>
<!DOCTYPE svg PUBLIC "-//W3C//DTD SVG 20010904//EN"
 "http://www.w3.org/TR/2001/REC-SVG-20010904/DTD/svg10.dtd">
<svg version="1.0" xmlns="http://www.w3.org/2000/svg"
 width="512.000000pt" height="512.000000pt" viewBox="0 0 512.000000 512.000000"
 preserveAspectRatio="xMidYMid meet">
<metadata>
Created by potrace 1.11, written by Peter Selinger 2001-2013
</metadata>
<g transform="translate(0.000000,512.000000) scale(0.100000,-0.100000)"
fill="#000000" stroke="none">
<path d="M245 4870 c208 -208 251 -247 264 -237 11 9 13 9 8 0 -4 -6 -3 -14 3
-18 6 -4 8 -10 5 -14 -2 -5 9 -7 25 -6 16 1 29 0 28 -4 -2 -19 4 -24 12 -11 7
11 10 11 10 2 0 -8 5 -10 13 -6 8 6 8 3 -1 -9 -12 -14 -11 -15 14 -11 16 3 34
9 40 15 8 6 16 3 25 -8 13 -17 13 -17 -6 -3 -19 14 -19 14 -6 -2 7 -10 16 -16
20 -13 16 9 61 13 56 4 -4 -5 -11 -6 -17 -3 -6 4 -8 3 -5 -3 3 -5 42 -9 86 -8
44 0 77 -3 75 -7 -3 -4 6 -8 20 -8 14 0 28 0 31 0 3 0 21 -10 41 -21 30 -16
39 -18 45 -7 8 12 13 5 10 -14 0 -4 8 -5 19 -3 11 2 20 0 20 -6 0 -5 8 -9 18
-9 9 0 29 -11 44 -24 14 -14 28 -23 30 -20 3 2 13 -5 23 -16 10 -11 23 -20 28
-20 6 0 19 -7 29 -17 14 -12 18 -13 18 -3 0 9 5 7 14 -6 8 -10 20 -19 28 -19
7 -1 12 -7 10 -14 -1 -7 2 -10 6 -7 5 3 17 -3 27 -14 10 -11 22 -20 27 -20 5
0 19 -10 31 -21 12 -12 16 -18 8 -14 -10 6 -12 4 -7 -4 6 -9 11 -9 21 -1 10 8
15 8 21 -1 5 -8 3 -10 -7 -4 -8 5 -11 4 -6 -1 5 -5 12 -9 15 -9 4 0 14 -4 22
-9 12 -7 13 -6 3 4 -9 10 -8 16 3 28 13 13 13 17 -6 37 -16 17 -18 25 -9 30 7
5 10 4 5 -3 -3 -6 -2 -13 3 -16 10 -7 9 20 -2 30 -13 13 -7 23 10 17 13 -5 15
-2 10 12 -4 9 -3 23 3 30 8 10 8 15 -1 21 -8 5 -9 3 -4 -6 6 -9 4 -11 -4 -5
-8 5 -9 11 -3 17 6 6 5 27 -3 58 -10 36 -10 51 -1 61 8 9 8 10 -4 4 -9 -5 -7
1 5 15 12 14 14 20 5 15 -12 -7 -13 -6 -3 6 6 8 14 28 17 44 8 45 27 85 37 79
5 -3 9 2 9 11 0 9 4 14 9 11 4 -3 19 3 31 14 20 17 31 22 43 19 1 0 14 4 28
10 19 7 34 6 54 -5 15 -8 36 -14 47 -14 24 0 112 -82 131 -123 9 -18 27 -49
42 -70 14 -21 20 -35 13 -31 -7 5 -3 -4 9 -19 11 -15 27 -47 34 -72 7 -25 17
-45 21 -45 6 0 19 -30 24 -57 6 -35 30 -92 50 -123 13 -19 24 -38 24 -42 0 -4
13 -27 29 -50 16 -24 27 -46 25 -49 -2 -4 3 -10 12 -13 8 -3 12 -10 9 -16 -3
-5 -1 -10 4 -10 6 0 11 -9 11 -20 0 -11 5 -20 10 -20 15 0 12 -37 -6 -73 -19
-36 -372 -653 -612 -1070 l-160 -277 558 -968 c307 -532 563 -967 570 -967 6
0 208 340 449 755 240 415 492 849 560 964 70 119 121 215 118 225 -3 9 -8 25
-13 35 -5 14 -4 17 5 12 7 -4 10 -3 9 5 -2 6 10 13 26 16 24 3 27 2 18 -10 -9
-11 -3 -13 38 -12 42 1 48 -1 37 -14 -10 -12 -9 -13 9 -3 12 6 33 9 48 6 29
-5 59 7 94 40 13 11 23 17 22 11 -6 -30 1 -43 24 -41 13 0 24 5 23 11 -1 5 5
10 13 10 8 0 14 5 13 11 -1 5 20 9 47 8 27 0 47 3 44 7 -2 4 0 10 5 13 5 4 13
2 16 -4 5 -8 11 -7 21 1 8 6 14 8 14 4 0 -4 6 -2 14 4 10 9 16 9 21 1 5 -8 11
-8 21 1 8 6 14 8 14 4 0 -4 8 -1 17 6 14 12 16 12 8 0 -6 -10 -4 -12 6 -5 8 4
41 9 74 10 33 2 97 7 142 11 56 6 86 6 93 -1 7 -7 13 -7 18 -1 8 12 53 15 46
3 -5 -7 8 -9 78 -12 14 0 26 -3 25 -6 -1 -3 2 -6 7 -6 4 -1 28 -21 52 -45 35
-34 44 -50 44 -77 0 -18 -4 -31 -8 -28 -5 3 -9 -1 -9 -9 0 -8 5 -11 11 -8 16
10 -16 -30 -36 -45 -9 -7 -23 -18 -30 -25 -7 -6 -24 -13 -38 -15 -13 -1 -27
-6 -30 -10 -3 -5 -17 -8 -32 -7 -16 1 -25 -2 -21 -8 4 -7 -38 -8 -126 -4 -75
4 -129 3 -126 -2 3 -5 -4 -7 -15 -4 -11 3 -18 9 -15 13 3 4 -9 6 -25 5 -17 -1
-33 1 -36 6 -2 4 -16 4 -29 -1 -22 -9 -28 -6 -27 10 0 3 -21 5 -48 5 -27 0
-48 4 -47 10 1 5 -14 10 -33 11 -19 0 -34 5 -33 10 1 5 -21 8 -48 8 -27 -1
-46 2 -43 7 3 5 0 9 -6 9 -6 0 -25 13 -43 30 -43 40 -70 40 -32 0 15 -16 33
-26 39 -23 6 4 4 -2 -4 -12 -9 -11 -10 -16 -2 -11 8 5 12 1 12 -10 0 -10 -3
-14 -7 -11 -3 4 -13 2 -20 -5 -11 -9 -17 -9 -24 3 -8 13 -10 12 -13 -11 -1
-14 -13 -17 -23 -6 -5 6 -2 6 7 1 13 -8 13 -7 1 8 -15 18 -26 23 -16 7 3 -6
-6 -15 -20 -20 -24 -9 -26 -12 -14 -27 8 -9 9 -14 3 -10 -7 4 -18 -1 -25 -10
-8 -9 -9 -14 -4 -11 6 3 21 -5 34 -18 22 -21 22 -23 5 -18 -12 3 -26 -1 -33
-10 -11 -13 -10 -15 9 -11 18 3 20 2 10 -10 -9 -11 -7 -12 12 -7 20 5 21 3 10
-10 -10 -13 -9 -18 5 -29 17 -13 17 -13 3 6 -15 20 -14 20 8 1 17 -15 19 -22
10 -28 -8 -5 -2 -7 15 -4 24 4 27 3 17 -9 -10 -12 -8 -13 9 -10 12 2 19 0 16
-6 -4 -5 1 -9 10 -9 9 0 14 -4 10 -9 -3 -5 -1 -12 5 -16 5 -3 10 -1 10 4 0 6
4 11 10 11 5 0 9 -5 7 -12 -1 -6 9 -15 23 -19 14 -4 18 -8 10 -9 -8 -1 -1 -6
15 -12 17 -6 39 -18 49 -27 16 -13 18 -13 11 -1 -7 13 -5 12 11 -1 16 -13 87
-50 104 -54 3 -1 18 -7 33 -13 16 -7 33 -12 38 -12 6 0 8 -4 4 -9 -3 -6 4 -8
15 -6 11 2 20 0 20 -4 0 -5 11 -12 25 -15 15 -4 53 -19 85 -35 32 -16 61 -27
63 -25 2 2 12 -5 22 -16 10 -11 24 -20 32 -20 7 0 13 -4 13 -8 0 -5 12 -15 28
-23 40 -21 85 -69 107 -114 11 -22 19 -43 20 -47 0 -3 3 -9 7 -13 5 -6 3 -32
-6 -70 -12 -48 -73 -124 -102 -126 -8 -1 -18 -3 -24 -4 -5 -1 -22 -3 -36 -4
-14 0 -23 -5 -20 -9 3 -5 -21 -9 -53 -9 -32 0 -64 -4 -71 -8 -9 -6 -11 -4 -5
6 7 11 6 12 -6 2 -12 -10 -18 -10 -27 -1 -7 7 -12 8 -12 4 0 -5 -7 -3 -16 5
-12 10 -17 10 -23 0 -5 -7 -14 -11 -22 -10 -8 1 -25 0 -39 -4 -14 -3 -50 -8
-80 -11 -146 -13 -261 -67 -371 -176 -139 -137 -177 -253 -165 -510 3 -80 6
-286 6 -457 l0 -313 715 0 715 0 0 2560 0 2560 -2562 0 -2563 0 250 -250z m20
0 c132 -132 238 -240 235 -240 -3 0 -113 108 -245 240 -132 132 -238 240 -235
240 3 0 113 -108 245 -240z m2346 -6 c8 -5 18 -9 24 -9 5 0 19 -19 31 -42 11
-24 23 -40 26 -37 3 2 5 -3 5 -13 0 -44 3 -54 16 -47 9 5 9 4 1 -5 -9 -10 -9
-19 1 -37 16 -31 8 -224 -10 -254 -4 -7 -4 -15 1 -19 13 -9 17 -34 4 -26 -6 4
-10 -4 -10 -19 0 -33 3 -42 13 -38 12 4 8 -5 -10 -19 -11 -10 -14 -10 -9 -1 4
6 3 12 -1 12 -5 0 -34 43 -64 95 -30 52 -59 96 -66 99 -7 3 -35 -37 -68 -95
-47 -82 -60 -97 -72 -88 -9 8 -11 15 -4 22 7 7 7 15 -2 26 -9 12 -9 13 1 7 6
-4 12 -3 12 3 0 5 -4 11 -9 13 -6 2 -12 15 -15 31 -3 16 -1 25 5 22 5 -4 9 -1
9 4 0 6 -3 11 -7 11 -11 0 -8 143 2 160 6 9 4 11 -6 5 -11 -7 -12 -6 -3 6 6 8
11 26 10 41 -1 14 2 24 6 22 4 -3 8 9 8 26 0 17 7 44 15 60 9 17 13 30 10 30
-11 0 36 45 48 45 7 1 11 5 10 10 -2 12 78 12 98 -1z m869 -197 c0 -11 26 -37
32 -32 3 3 5 -2 5 -10 0 -8 -5 -11 -11 -8 -6 4 -5 0 1 -8 11 -13 15 -54 12
-131 0 -10 -5 -18 -10 -18 -6 0 -8 -4 -5 -8 3 -5 -1 -21 -9 -36 -8 -15 -16
-35 -17 -44 -2 -9 -9 -23 -16 -30 -7 -8 -10 -18 -7 -23 4 -5 2 -9 -2 -9 -5 0
-14 -9 -21 -21 -11 -17 -11 -20 0 -13 7 4 2 -4 -11 -19 -13 -14 -21 -32 -18
-39 2 -7 -7 -26 -22 -42 -14 -16 -19 -25 -11 -21 13 8 13 6 1 -8 -7 -9 -17
-14 -22 -11 -5 3 -8 0 -7 -8 2 -7 -3 -12 -11 -10 -12 3 -12 1 0 -14 9 -12 9
-15 2 -10 -8 4 -13 2 -13 -7 0 -7 -8 -22 -18 -33 -44 -49 -91 -111 -87 -116 3
-2 -2 -5 -9 -5 -8 0 -14 5 -13 11 1 5 -6 12 -15 14 -14 3 -18 -4 -19 -32 -2
-45 -2 -48 -12 -63 -9 -14 -37 -6 -37 9 0 6 8 4 18 -3 9 -7 6 -1 -8 14 -19 22
-25 39 -25 82 -1 29 3 53 9 52 5 -1 10 32 12 73 4 91 13 140 26 140 6 0 6 6
-1 14 -8 10 -9 16 -1 21 5 3 10 18 11 33 l1 27 8 -25 c8 -23 8 -23 11 10 1 19
3 43 3 52 0 9 3 15 8 12 4 -3 8 5 8 18 0 13 6 30 13 37 9 10 9 12 0 7 -8 -5
-8 2 2 20 8 15 11 32 8 38 -3 6 -3 8 1 4 5 -4 24 25 43 63 31 62 42 74 66 70
4 0 6 5 5 12 -2 6 3 11 10 10 6 -2 11 0 11 5 -1 4 -1 9 0 12 2 9 131 6 131 -3z
m-930 -1162 l0 -935 -540 0 c-297 0 -540 3 -540 6 0 7 1073 1864 1077 1864 2
0 3 -421 3 -935z m574 -12 c289 -501 526 -914 526 -917 0 -3 -243 -6 -540 -6
l-540 0 0 937 c0 791 2 934 14 918 7 -11 250 -430 540 -932z m1072 682 c12
-11 20 -28 18 -37 -1 -10 0 -20 4 -22 11 -7 7 -53 -6 -69 -6 -7 -13 -24 -15
-36 -2 -12 -10 -30 -18 -39 -9 -10 -18 -25 -22 -34 -3 -9 -41 -46 -84 -83 -43
-37 -77 -72 -75 -77 1 -5 -2 -7 -7 -4 -5 4 -26 -11 -47 -31 -20 -21 -31 -30
-24 -20 11 15 11 17 -4 11 -9 -3 -16 -10 -16 -15 0 -5 -6 -9 -13 -9 -8 0 -22
-10 -33 -22 l-19 -23 25 20 25 20 -18 -22 c-10 -11 -27 -23 -38 -26 -18 -5
-18 -3 -7 11 12 15 11 16 -4 3 -10 -7 -18 -19 -18 -26 0 -8 -11 -12 -30 -10
-24 2 -28 0 -19 -11 8 -10 6 -12 -10 -9 -12 2 -20 -1 -18 -8 1 -7 -4 -11 -11
-9 -6 1 -11 -3 -10 -10 2 -7 -7 -12 -19 -13 -12 0 -32 -9 -45 -20 -31 -25 -57
-33 -39 -11 9 10 9 16 1 21 -7 4 -14 -2 -17 -14 -3 -12 -12 -21 -19 -21 -19 0
-18 36 2 44 10 4 14 14 11 26 -3 11 -1 18 4 14 5 -3 9 10 9 29 0 34 20 63 34
49 4 -4 6 0 4 8 -2 9 3 14 11 12 12 -3 12 -1 0 14 -8 10 -9 15 -3 11 6 -3 16
9 24 28 8 19 26 47 42 62 15 15 28 33 28 40 0 8 4 12 9 8 9 -5 25 12 26 26 0
6 32 47 94 119 18 22 38 37 44 33 5 -3 7 -2 4 4 -4 5 7 23 23 38 17 16 30 25
31 19 0 -5 4 1 9 14 8 19 45 43 72 46 4 1 12 6 17 11 19 19 114 12 137 -10z
m-1091 -285 c3 -5 1 -10 -4 -10 -6 0 -11 5 -11 10 0 6 2 10 4 10 3 0 8 -4 11
-10z m-14 -67 c13 -16 12 -17 -3 -4 -17 13 -22 21 -14 21 2 0 10 -8 17 -17z
m559 -298 c-7 -8 -19 -15 -27 -15 -8 0 -12 -4 -9 -9 4 -5 -2 -8 -11 -6 -10 1
-25 -3 -33 -9 -13 -9 -13 -9 -3 5 7 9 10 19 7 22 -4 4 3 5 14 2 11 -2 26 3 33
11 6 8 18 14 26 14 13 0 13 -3 3 -15z m-126 -18 c3 4 13 8 22 9 13 2 13 0 2
-13 -7 -9 -12 -19 -10 -22 2 -3 -2 -7 -10 -9 -10 -3 -10 -2 1 6 15 11 4 21
-20 17 -9 -2 -16 3 -16 11 0 9 4 11 12 4 7 -5 15 -7 19 -3z m1045 -1 c10 -7
12 -5 6 3 -4 8 4 7 24 -3 17 -9 31 -14 31 -10 0 4 7 1 15 -6 8 -7 13 -16 10
-20 -2 -4 6 -17 19 -29 13 -13 23 -30 21 -39 -2 -9 -4 -17 -5 -17 -1 0 -4 -11
-6 -25 -6 -33 -68 -95 -121 -121 -23 -11 -44 -19 -47 -17 -2 2 -14 -6 -27 -17
-13 -12 -19 -14 -14 -5 8 13 7 13 -8 1 -9 -7 -17 -10 -17 -5 0 4 -11 -3 -24
-15 -16 -15 -26 -19 -31 -11 -5 8 -12 7 -23 -3 -10 -8 -25 -13 -35 -12 -9 2
-15 0 -12 -5 3 -4 -4 -10 -15 -13 -13 -3 -18 -1 -13 5 4 7 1 8 -8 2 -8 -5 -21
-9 -29 -9 -8 0 -19 -3 -25 -6 -5 -3 -19 -9 -29 -13 -17 -6 -17 -5 -5 10 13 16
12 16 -18 1 -18 -10 -41 -17 -52 -17 -11 0 -22 -4 -26 -10 -3 -5 -13 -6 -22
-3 -13 5 -15 2 -10 -12 6 -15 5 -16 -8 -5 -9 7 -22 9 -32 5 -23 -10 -103 -13
-108 -5 -2 4 -19 4 -37 2 -28 -4 -30 -6 -13 -12 11 -4 25 -3 32 2 7 5 13 5 17
0 3 -5 19 -8 36 -7 16 1 28 -1 25 -5 -2 -3 -35 -6 -72 -4 -51 1 -73 -2 -86
-14 -15 -14 -18 -14 -15 -2 2 10 -4 15 -19 14 -12 -1 -21 4 -20 10 1 6 -5 10
-13 8 -10 -2 -6 5 9 22 18 19 28 23 37 15 7 -5 15 -6 18 -1 8 14 61 7 58 -7
-1 -7 1 -10 6 -7 5 3 8 23 7 44 -2 36 7 54 30 61 6 2 9 7 7 12 -1 5 4 8 10 7
7 -2 12 3 10 10 -1 6 4 11 10 10 7 -2 12 3 10 10 -1 6 4 11 10 10 7 -2 12 2
11 8 -1 6 11 10 27 9 16 -1 28 3 27 9 -1 6 4 10 11 8 6 -1 12 5 12 14 0 8 5
12 10 9 6 -3 10 2 11 12 0 16 1 16 9 -2 8 -19 9 -19 9 -1 1 11 4 17 7 14 8 -9
125 60 138 81 4 6 12 8 19 5 7 -2 37 8 67 23 30 15 57 28 60 28 3 1 13 5 22 9
9 4 25 9 35 11 10 2 18 4 18 5 0 1 11 4 24 6 14 2 26 6 29 8 5 6 25 2 41 -8z
m-1055 -45 c3 -5 0 -14 -8 -20 -10 -9 -17 -7 -27 6 -8 9 -9 14 -2 10 6 -4 14
-3 18 3 8 12 12 13 19 1z m371 -314 c2 -20 -1 -24 -10 -17 -6 5 -14 8 -16 5
-3 -2 -5 6 -5 19 0 34 30 27 31 -7z m-51 15 c3 -5 -1 -9 -9 -9 -8 0 -15 4 -15
9 0 4 4 8 9 8 6 0 12 -4 15 -8z m-74 -45 c0 -2 -12 -14 -27 -28 l-28 -24 24
28 c23 25 31 32 31 24z m40 -85 c0 -5 -41 -42 -47 -42 -2 0 -2 4 2 9 3 5 1 12
-5 16 -16 10 -4 21 24 21 14 0 26 -2 26 -4z m-279 -115 c-6 -8 -7 -18 -3 -23
4 -4 -1 -2 -10 5 -19 14 -25 26 -8 16 6 -3 10 -1 10 4 0 6 5 11 11 11 8 0 9
-4 0 -13z m172 -259 c9 0 17 -4 17 -10 0 -6 -3 -8 -7 -5 -3 4 -14 0 -24 -9
-17 -16 -21 -14 -33 20 -5 15 -3 17 11 11 10 -4 26 -7 36 -7z m-1143 -1045 c0
-791 -2 -934 -14 -918 -22 32 -1066 1843 -1066 1849 0 3 243 6 540 6 l540 0 0
-937z m1100 931 c0 -6 -1044 -1816 -1066 -1849 -12 -16 -14 127 -14 918 l0
937 540 0 c297 0 540 -3 540 -6z m1295 -2211 c-2 -21 -4 -40 -4 -43 -1 -3 -17
-6 -36 -7 -34 -2 -35 -1 -35 36 0 46 4 51 46 51 32 0 33 -1 29 -37z m142 15
c-3 -8 -6 -5 -6 6 -1 11 2 17 5 13 3 -3 4 -12 1 -19z m-87 3 c0 -13 -28 -22
-35 -11 -3 4 1 11 7 13 20 8 28 8 28 -2z m0 -50 c0 -18 -12 -41 -22 -41 -6 0
-5 6 2 15 9 10 9 15 1 15 -6 0 -11 5 -11 10 0 6 7 10 15 10 8 0 15 -4 15 -9z
m-87 -49 c-13 -2 -23 -9 -23 -15 0 -7 -4 -6 -10 3 -15 24 -12 27 23 21 26 -4
28 -6 10 -9z m117 -32 c-8 -6 -23 -15 -33 -21 -16 -9 -17 -8 -5 10 7 12 22 21
33 21 17 0 18 -2 5 -10z m60 -25 c0 -14 -4 -25 -10 -25 -11 0 -14 33 -3 43 11
11 13 8 13 -18z m-55 -15 c-10 -11 -28 -20 -39 -19 -19 0 -19 1 4 12 14 6 29
18 33 25 5 7 11 11 15 8 3 -3 -3 -15 -13 -26z m-65 -20 c0 -5 -4 -10 -10 -10
-5 0 -10 5 -10 10 0 6 5 10 10 10 6 0 10 -4 10 -10z"/>
<path d="M3291 4067 c-13 -21 -12 -21 5 -5 10 10 16 20 13 22 -3 3 -11 -5 -18
-17z"/>
<path d="M3690 3800 c-9 -6 -10 -10 -3 -10 6 0 15 5 18 10 8 12 4 12 -15 0z"/>
<path d="M3781 3096 c-8 -10 -9 -16 -1 -21 5 -3 10 -3 10 1 0 4 9 -1 19 -10
19 -17 19 -17 17 1 -2 10 2 25 8 33 9 13 9 13 -5 3 -10 -9 -19 -9 -26 -2 -7 7
-14 5 -22 -5z m30 -13 c12 -16 12 -17 -2 -6 -9 7 -20 9 -24 5 -5 -4 -5 -1 -1
6 9 16 11 15 27 -5z"/>
<path d="M3940 2600 c-12 -7 -10 -9 7 -7 12 0 19 5 17 9 -6 10 -6 10 -24 -2z"/>
<path d="M0 742 l0 -742 741 0 c499 0 738 3 734 10 -4 6 -11 8 -16 4 -5 -3 -8
0 -7 8 2 7 -3 12 -10 10 -6 -1 -11 3 -10 9 2 6 -6 16 -16 22 -23 14 -105 93
-109 104 -1 5 -5 7 -10 5 -4 -1 -6 4 -5 10 2 7 -3 12 -10 10 -6 -1 -11 4 -10
10 2 7 -3 12 -10 10 -6 -1 -11 4 -10 10 2 7 -3 12 -10 10 -6 -1 -11 4 -10 10
2 7 -3 12 -10 10 -8 -1 -11 1 -8 6 6 11 -47 64 -57 57 -4 -3 -5 -2 -2 2 3 3 0
11 -5 18 -5 6 -11 22 -14 36 -2 13 -9 23 -15 22 -6 -2 -10 2 -8 9 1 7 -10 12
-30 11 -18 0 -31 5 -30 10 1 6 -8 16 -20 22 -13 5 -23 14 -23 20 0 6 -14 12
-32 13 -18 2 -40 10 -49 18 -9 8 -31 16 -48 18 -17 1 -41 11 -53 22 -13 11
-35 26 -50 34 -16 7 -28 17 -28 22 0 4 -6 8 -13 8 -7 0 -26 13 -42 30 -15 16
-32 27 -37 24 -5 -3 -7 0 -6 8 2 7 -3 12 -10 10 -8 -1 -11 1 -8 6 3 5 -8 22
-24 37 -16 15 -27 32 -24 37 3 4 0 8 -5 8 -6 0 -11 6 -11 14 0 7 -10 26 -22
42 -13 15 -16 24 -8 19 9 -5 7 0 -4 13 -11 12 -16 22 -11 22 4 0 2 7 -5 15 -7
8 -9 15 -5 15 4 0 2 6 -4 13 -6 8 -7 17 -3 21 4 4 1 6 -7 4 -8 -2 -15 7 -18
22 -2 14 -6 32 -8 40 -1 8 -9 13 -16 12 -8 -2 -11 0 -6 4 10 10 -23 45 -36 37
-5 -3 -7 -1 -3 5 3 6 2 13 -3 17 -6 3 -8 12 -4 21 7 20 -25 54 -51 54 -13 0
-44 22 -76 55 -29 30 -57 52 -62 49 -5 -3 -7 0 -6 8 2 7 -3 12 -9 11 -7 -2
-12 3 -10 10 1 6 -4 11 -10 10 -7 -2 -12 3 -10 10 1 6 -4 11 -10 10 -7 -2 -12
3 -10 10 1 6 -4 11 -11 10 -6 -2 -11 3 -10 10 2 6 -3 11 -10 9 -6 -1 -11 4
-10 10 2 7 -3 12 -10 11 -6 -2 -11 3 -10 10 2 6 -3 11 -10 10 -6 -2 -11 3 -10
10 2 6 -3 11 -10 9 -8 -1 -11 1 -8 6 3 5 -8 22 -24 37 l-30 29 0 -742z m31
701 c13 -16 12 -17 -3 -4 -17 13 -22 21 -14 21 2 0 10 -8 17 -17z"/>
</g>
</svg>
